<svg width="106" height="106" viewBox="0 0 106 106" fill="none" xmlns="http://www.w3.org/2000/svg">
<circle cx="53" cy="53" r="53" fill="#F1F1F1"/>
<path d="M39.7545 98.8241C38.9417 101.636 40.5604 104.603 43.4395 105.131C50.938 106.506 58.6668 106.251 66.0944 104.357C75.2388 102.025 83.5949 97.2945 90.2993 90.6531C97.0038 84.0117 101.813 75.7006 104.231 66.5786C106.195 59.1693 106.523 51.4432 105.219 43.932C104.718 41.0481 101.767 39.4015 98.9471 40.1877C96.1275 40.9739 94.5145 43.8966 94.9431 46.7922C95.7835 52.4703 95.4648 58.279 93.9848 63.8629C92.0506 71.1605 88.203 77.8094 82.8395 83.1225C77.4759 88.4356 70.7911 92.2203 63.4755 94.0856C57.8779 95.5128 52.0664 95.7766 46.3965 94.8826C43.5052 94.4268 40.5673 96.0121 39.7545 98.8241Z" fill="#2C0E0E"/>
<path d="M62.9699 99.6464C63.5817 102.509 61.7572 105.353 58.848 105.676C51.9798 106.439 45.0109 105.853 38.3375 103.931C29.9617 101.52 22.31 97.0805 16.0599 91.0056C9.80983 84.9308 5.15441 77.4083 2.506 69.1046C-0.142404 60.8008 -0.702049 51.972 0.876641 43.4002C2.45533 34.8285 6.12363 26.7784 11.5566 19.963C16.9896 13.1476 24.0195 7.77725 32.0237 4.32768C40.0279 0.878114 48.7593 -0.544208 57.4445 0.186703C64.3645 0.769062 71.085 2.70402 77.2309 5.86337C79.8342 7.2016 80.5256 10.5095 78.9342 12.9662C77.3427 15.4229 74.072 16.0907 71.4361 14.8179C66.7798 12.5697 61.7377 11.1855 56.5556 10.7494C49.6075 10.1646 42.6223 11.3025 36.219 14.0621C29.8156 16.8218 24.1917 21.1181 19.8453 26.5704C15.4989 32.0227 12.5643 38.4628 11.3013 45.3202C10.0384 52.1776 10.4861 59.2406 12.6048 65.8836C14.7235 72.5267 18.4479 78.5447 23.4479 83.4045C28.448 88.2644 34.5694 91.8161 41.27 93.7451C46.2674 95.1838 51.4718 95.6868 56.6235 95.2449C59.5399 94.9948 62.3581 96.784 62.9699 99.6464Z" fill="#FF0C0C"/>
<path d="M100.7 53C103.627 53 106.027 50.6213 105.735 47.7088C105.219 42.5639 103.952 37.5125 101.966 32.7178C99.3021 26.2875 95.3981 20.4449 90.4766 15.5234C85.5551 10.6018 79.7125 6.6979 73.2822 4.0344C68.4875 2.04837 63.4361 0.781016 58.2912 0.264795C55.3787 -0.0274315 53 2.37291 53 5.30001C53 8.22712 55.382 10.5659 58.2862 10.9308C62.0379 11.4023 65.7177 12.3744 69.2258 13.8275C74.37 15.9583 79.0441 19.0815 82.9813 23.0187C86.9185 26.9559 90.0417 31.63 92.1725 36.7742C93.6256 40.2823 94.5977 43.9621 95.0692 47.7138C95.4341 50.618 97.7729 53 100.7 53Z" fill="#9F0E29"/>
</svg>
